<?xml version="1.0" encoding="iso-8859-1"?>
<!-- Generator: Adobe Illustrator 19.0.0, SVG Export Plug-In . SVG Version: 6.00 Build 0)  -->
<svg version="1.1" id="Capa_1" xmlns="http://www.w3.org/2000/svg" xmlns:xlink="http://www.w3.org/1999/xlink" x="0px" y="0px"
	 viewBox="0 0 512 512" style="enable-background:new 0 0 512 512;" xml:space="preserve">
<g>
	<g>
		<path d="M460.453,292.323c5.011-19.183,7.611-39.136,7.611-59.494c0-62.177-24.098-120.636-67.855-164.609
			C356.433,24.228,298.223,0,236.303,0C174.385,0,116.175,24.228,72.398,68.22C28.642,112.192,4.543,170.652,4.543,232.829
			s24.098,120.636,67.855,164.608c43.777,43.993,101.986,68.22,163.905,68.22c17.881,0,35.448-2.033,52.451-5.966
			C310.523,491.298,346.543,512,387.223,512c66.298,0,120.235-54.976,120.235-122.55
			C507.459,349.943,489.017,314.749,460.453,292.323z M415.166,139.065c14.614,28.06,22.896,59.956,22.896,93.764
			c0,14.918-1.625,29.459-4.68,43.468c-14.219-6.05-29.812-9.398-46.159-9.398c-4.066,0-8.084,0.209-12.048,0.613l-7.705-8.207
			c-2.835-3.02-6.793-4.733-10.936-4.733h-55.663c-4.194,0-8.197,1.756-11.037,4.842l-14.428,15.677h-24.104v-36.104h53.407
			c8.284,0,15-6.716,15-15v-24.374c5.003-11.241,27.139-16.042,37.552-16.605c7.992-0.389,14.272-6.981,14.272-14.982v-28.961
			H415.166z M236.303,30c10.429,0,20.677,0.8,30.684,2.341v48.911c-3.079,11.445-8.9,19.031-13.802,23.686l-22.625-23.7
			c-2.83-2.965-6.75-4.642-10.85-4.642h-55.115c-8.284,0-15,6.716-15,15v34.898l-18.31,16.176H55.609
			C88.683,75.95,157.251,30,236.303,30z M35.096,247.829h29.8l19.198,40.493c1.542,3.252,4.201,5.841,7.493,7.295l21.336,9.424
			l-39.035,47.977C51.948,323.135,37.959,287.013,35.096,247.829z M260.72,434.168c-0.177-0.286-0.348-0.574-0.546-0.852
			l-38.028-53.171l20.901-23.553h28.336c-2.86,10.461-4.395,21.479-4.395,32.857c0,14.955,2.646,29.291,7.479,42.552
			C269.936,432.877,265.353,433.604,260.72,434.168z M284.047,326.593h-47.743c-4.289,0-8.373,1.836-11.219,5.043l-33.32,37.546
			c-4.646,5.236-5.054,12.989-0.981,18.683l33.937,47.451c-51.02-2.918-97.031-24.97-131.01-59.126l54.888-67.461
			c2.952-3.628,4.042-8.425,2.949-12.973c-1.093-4.548-4.246-8.325-8.524-10.215l-34.212-15.111l-20.873-44.026
			c-2.482-5.236-7.759-8.574-13.554-8.574H35.096c1.14-15.604,4.039-30.725,8.507-45.158h93.36c3.658,0,7.19-1.337,9.932-3.759
			l27.633-24.413c3.223-2.847,5.068-6.941,5.068-11.241v-26.662h33.697l27.108,28.396c4.408,4.618,11.255,5.94,17.065,3.294
			c1.227-0.559,30.145-14.109,39.112-51.685c0.272-1.141,0.41-2.309,0.41-3.482V39.38c39.707,12.616,74.136,37.272,99.045,69.685
			h-39.498c-8.284,0-15,6.716-15,15v30.799c-17.137,3.319-43.959,12.552-51.248,38.099c-0.382,1.338-0.576,2.724-0.576,4.116v11.908
			h-53.407c-8.284,0-15,6.716-15,15v66.104c0,8.284,6.716,15,15,15h45.684c4.194,0,8.197-1.756,11.037-4.842l14.428-15.677h17.628
			C308.277,294.954,294.159,309.414,284.047,326.593z M387.223,482c-49.756,0-90.235-41.518-90.235-92.55
			c0-51.033,40.479-92.551,90.235-92.551s90.235,41.518,90.235,92.551C477.459,440.482,436.979,482,387.223,482z"/>
	</g>
</g>
<g>
	<g>
		<path d="M435.371,423.52l-29.044-38.518V359.22c0-8.284-6.716-15-15-15s-15,6.716-15,15v30.803c0,3.259,1.061,6.429,3.023,9.031
			l32.067,42.527c2.948,3.911,7.441,5.97,11.988,5.97c3.145,0,6.315-0.985,9.02-3.024C439.04,439.54,440.359,430.134,435.371,423.52
			z"/>
	</g>
</g>
<g>
</g>
<g>
</g>
<g>
</g>
<g>
</g>
<g>
</g>
<g>
</g>
<g>
</g>
<g>
</g>
<g>
</g>
<g>
</g>
<g>
</g>
<g>
</g>
<g>
</g>
<g>
</g>
<g>
</g>
</svg>
